<svg width="97" height="97" viewBox="0 0 97 97" fill="none" xmlns="http://www.w3.org/2000/svg">
<path d="M67.3695 37.3223C67.9216 37.9054 68.2197 38.6838 68.1984 39.4866C68.1771 40.2894 67.8381 41.0508 67.2559 41.6039L45.052 62.8227C44.4779 63.3626 43.7182 63.6611 42.9301 63.6562C42.1536 63.6592 41.4064 63.3603 40.8461 62.8227L29.7442 52.2133C29.4362 51.9446 29.1858 51.6165 29.0079 51.2486C28.8301 50.8807 28.7284 50.4806 28.7091 50.0724C28.6898 49.6642 28.7532 49.2563 28.8955 48.8733C29.0379 48.4902 29.2562 48.1399 29.5374 47.8434C29.8186 47.5468 30.1568 47.3102 30.5318 47.1478C30.9068 46.9853 31.3107 46.9003 31.7193 46.898C32.128 46.8956 32.5329 46.9759 32.9097 47.134C33.2865 47.2921 33.6275 47.5247 33.9121 47.818L42.9301 56.4191L63.0879 37.2086C63.6711 36.6565 64.4495 36.3584 65.2522 36.3797C66.055 36.4011 66.8165 36.74 67.3695 37.3223ZM87.9063 48.5C87.9063 56.2938 85.5951 63.9126 81.2651 70.3929C76.9351 76.8733 70.7807 81.9241 63.5801 84.9066C56.3796 87.8892 48.4563 88.6696 40.8122 87.1491C33.1682 85.6286 26.1467 81.8755 20.6356 76.3644C15.1245 70.8534 11.3714 63.8318 9.85095 56.1878C8.33045 48.5437 9.11082 40.6204 12.0934 33.4199C15.076 26.2193 20.1268 20.0649 26.6071 15.7349C33.0874 11.4049 40.7062 9.09375 48.5 9.09375C58.9451 9.11378 68.9566 13.2719 76.3423 20.6577C83.7281 28.0435 87.8862 38.055 87.9063 48.5ZM81.8438 48.5C81.8438 41.9052 79.8882 35.4586 76.2243 29.9752C72.5605 24.4919 67.3529 20.2181 61.2601 17.6944C55.1673 15.1707 48.463 14.5104 41.995 15.7969C35.5269 17.0835 29.5856 20.2592 24.9224 24.9224C20.2592 29.5856 17.0835 35.5269 15.797 41.995C14.5104 48.463 15.1707 55.1673 17.6944 61.2601C20.2181 67.3529 24.4919 72.5605 29.9752 76.2243C35.4586 79.8882 41.9052 81.8438 48.5 81.8438C57.3403 81.8337 65.8155 78.3175 72.0665 72.0665C78.3175 65.8155 81.8337 57.3402 81.8438 48.5Z" fill="#13A72B"/>
</svg>
