<svg width="33" height="33" viewBox="0 0 33 33" fill="none" xmlns="http://www.w3.org/2000/svg">
<path d="M14.3793 11.5226V13.7603H12.7413V16.4951H14.3793V24.625H17.7463V16.4951H20.0051C20.0051 16.4951 20.218 15.1838 20.3203 13.7489H17.7593V11.8801C17.7593 11.599 18.1266 11.2236 18.4906 11.2236H20.3236V8.375H17.8292C14.2965 8.375 14.3793 11.1131 14.3793 11.5226Z" fill="#A3A6B5"/>
<path d="M6.75 3.5C5.88805 3.5 5.0614 3.84241 4.4519 4.4519C3.84241 5.0614 3.5 5.88805 3.5 6.75V26.25C3.5 27.112 3.84241 27.9386 4.4519 28.5481C5.0614 29.1576 5.88805 29.5 6.75 29.5H26.25C27.112 29.5 27.9386 29.1576 28.5481 28.5481C29.1576 27.9386 29.5 27.112 29.5 26.25V6.75C29.5 5.88805 29.1576 5.0614 28.5481 4.4519C27.9386 3.84241 27.112 3.5 26.25 3.5H6.75ZM6.75 0.25H26.25C27.9739 0.25 29.6272 0.93482 30.8462 2.15381C32.0652 3.37279 32.75 5.02609 32.75 6.75V26.25C32.75 27.9739 32.0652 29.6272 30.8462 30.8462C29.6272 32.0652 27.9739 32.75 26.25 32.75H6.75C5.02609 32.75 3.37279 32.0652 2.15381 30.8462C0.93482 29.6272 0.25 27.9739 0.25 26.25V6.75C0.25 5.02609 0.93482 3.37279 2.15381 2.15381C3.37279 0.93482 5.02609 0.25 6.75 0.25Z" fill="#A3A6B5"/>
</svg>
