<svg width="38" height="34" viewBox="0 0 38 34" fill="none" xmlns="http://www.w3.org/2000/svg">
<path d="M19.9167 5.58334V8.50251L22.5 10.2204V8.16668H35.4167V27.5417H28.9583V30.125H38V5.58334H19.9167ZM16.6875 9.45834L7 15.9167V30.125H26.375V15.9167L16.6875 9.45834ZM25.0833 10.75V11.9513L27.1629 13.3333H27.6667V10.75H25.0833ZM30.25 10.75V13.3333H32.8333V10.75H30.25ZM16.6875 12.6875L23.7917 17.2083V27.5417H19.9167V19.7917H13.4583V27.5417H9.58333V17.2083L16.6875 12.6875ZM30.25 15.9167V18.5H32.8333V15.9167H30.25ZM30.25 21.0833V23.6667H32.8333V21.0833H30.25Z" fill="#5050D1"/>
<path d="M6.33325 2H9.66659C9.9318 2 10.1862 2.10536 10.3737 2.29289C10.5612 2.48043 10.6666 2.73478 10.6666 3C10.6666 3.61884 10.4208 4.21233 9.98317 4.64992C9.54558 5.0875 8.95209 5.33333 8.33325 5.33333H7.66659C7.04775 5.33333 6.45425 5.0875 6.01667 4.64992C5.57908 4.21233 5.33325 3.61884 5.33325 3C5.33325 2.73478 5.43861 2.48043 5.62615 2.29289C5.81368 2.10536 6.06804 2 6.33325 2Z" stroke="#13A72B" stroke-width="2" stroke-linecap="round" stroke-linejoin="round"/>
<path d="M2.66663 11.3333V10.6667C2.66663 9.25219 3.22853 7.89563 4.22872 6.89544C5.22892 5.89525 6.58547 5.33334 7.99996 5.33334C9.41445 5.33334 10.771 5.89525 11.7712 6.89544C12.7714 7.89563 13.3333 9.25219 13.3333 10.6667V11.3333C13.3333 12.0406 13.0523 12.7189 12.5522 13.219C12.0521 13.7191 11.3739 14 10.6666 14H5.33329C4.62605 14 3.94777 13.7191 3.44767 13.219C2.94758 12.7189 2.66663 12.0406 2.66663 11.3333Z" stroke="#13A72B" stroke-width="2" stroke-linecap="round" stroke-linejoin="round"/>
</svg>
