<svg width="38" height="38" viewBox="0 0 38 38" fill="none" xmlns="http://www.w3.org/2000/svg">
<path d="M19 15.0417C18.6833 14.6458 18.2743 14.3355 17.7729 14.1107C17.2715 13.8869 16.7305 13.775 16.15 13.775C15.2 13.775 14.3819 14.1181 13.6958 14.8042C13.0097 15.4903 12.6666 16.3083 12.6666 17.2583C12.6666 18.0764 12.8709 18.8417 13.2794 19.5542C13.689 20.2667 14.6722 21.3354 16.2291 22.7604L17.9312 24.3438C18.2215 24.634 18.5778 24.7792 19 24.7792C19.4222 24.7792 19.7785 24.634 20.0687 24.3438L21.7312 22.8C23.2618 21.375 24.245 20.2931 24.681 19.5542C25.1159 18.8153 25.3333 18.05 25.3333 17.2583C25.3333 16.3083 24.9903 15.4903 24.3041 14.8042C23.618 14.1181 22.8 13.775 21.85 13.775C21.2958 13.775 20.7617 13.8869 20.2476 14.1107C19.7325 14.3355 19.3166 14.6458 19 15.0417ZM19 34.7146H18.6041C18.4722 34.7146 18.3535 34.6882 18.2479 34.6354C14.791 33.5535 11.941 31.4091 9.6979 28.2023C7.45484 24.9966 6.33331 21.4542 6.33331 17.575V10.0938C6.33331 9.43404 6.5249 8.84029 6.90806 8.31251C7.29017 7.78473 7.7847 7.40209 8.39165 7.16459L17.8916 3.60209C18.2611 3.47015 18.6305 3.40417 19 3.40417C19.3694 3.40417 19.7389 3.47015 20.1083 3.60209L29.6083 7.16459C30.2153 7.40209 30.7103 7.78473 31.0935 8.31251C31.4756 8.84029 31.6666 9.43404 31.6666 10.0938V17.575C31.6666 21.4542 30.5451 24.9966 28.3021 28.2023C26.059 31.4091 23.209 33.5535 19.7521 34.6354C19.6201 34.6882 19.3694 34.7146 19 34.7146ZM19 31.5083C21.7444 30.6375 24.0139 28.8958 25.8083 26.2833C27.6028 23.6708 28.5 20.7681 28.5 17.575V10.0938L19 6.53126L9.49998 10.0938V17.575C9.49998 20.7681 10.3972 23.6708 12.1916 26.2833C13.9861 28.8958 16.2555 30.6375 19 31.5083Z" fill="#5050D1"/>
</svg>
