<svg width="35" height="35" viewBox="0 0 35 35" fill="none" xmlns="http://www.w3.org/2000/svg">
<path d="M30.625 16.0417C30.625 24.1354 25.025 31.7042 17.5 33.5417C9.975 31.7042 4.375 24.1354 4.375 16.0417V7.29167L17.5 1.45834L30.625 7.29167V16.0417ZM17.5 30.625C22.9688 29.1667 27.7083 22.6625 27.7083 16.3625V9.1875L17.5 4.6375L7.29167 9.1875V16.3625C7.29167 22.6625 12.0312 29.1667 17.5 30.625ZM21.5833 16.0417V13.8542C21.5833 11.8125 19.5417 10.2083 17.5 10.2083C15.4583 10.2083 13.4167 11.8125 13.4167 13.8542V16.0417C12.5417 16.0417 11.6667 16.9167 11.6667 17.7917V22.8958C11.6667 23.9167 12.5417 24.7917 13.4167 24.7917H21.4375C22.4583 24.7917 23.3333 23.9167 23.3333 23.0417V17.9375C23.3333 16.9167 22.4583 16.0417 21.5833 16.0417ZM19.6875 16.0417H15.3125V13.8542C15.3125 12.6875 16.3333 11.9583 17.5 11.9583C18.6667 11.9583 19.6875 12.6875 19.6875 13.8542V16.0417Z" fill="#5050D1"/>
</svg>
