<svg width="185" height="26" viewBox="0 0 185 26" fill="none" xmlns="http://www.w3.org/2000/svg">
<path d="M11.6818 7.54545V11.6364H0.454545V7.54545H11.6818ZM2.79545 25V6.65909C2.79545 5.31061 3.04924 4.19318 3.55682 3.30682C4.06439 2.41288 4.76894 1.74621 5.67045 1.30682C6.57197 0.859847 7.61364 0.636362 8.79545 0.636362C9.56818 0.636362 10.2955 0.696969 10.9773 0.818182C11.6667 0.931818 12.178 1.03409 12.5114 1.125L11.625 5.19318C11.4205 5.125 11.1705 5.06818 10.875 5.02273C10.5871 4.97727 10.3144 4.95454 10.0568 4.95454C9.4053 4.95454 8.95833 5.09848 8.71591 5.38636C8.47348 5.67424 8.35227 6.06818 8.35227 6.56818V25H2.79545ZM18.5881 25.2955C17.4744 25.2955 16.4858 25.1098 15.6222 24.7386C14.7661 24.3598 14.0881 23.7917 13.5881 23.0341C13.0956 22.2689 12.8494 21.3106 12.8494 20.1591C12.8494 19.1894 13.0199 18.3712 13.3608 17.7045C13.7017 17.0379 14.1714 16.4962 14.7699 16.0795C15.3684 15.6629 16.0578 15.3485 16.8381 15.1364C17.6184 14.9167 18.4517 14.7689 19.3381 14.6932C20.3305 14.6023 21.1297 14.5076 21.7358 14.4091C22.3419 14.303 22.7813 14.1553 23.054 13.9659C23.3343 13.7689 23.4744 13.4924 23.4744 13.1364V13.0795C23.4744 12.4962 23.2737 12.0455 22.8722 11.7273C22.4706 11.4091 21.929 11.25 21.2472 11.25C20.5123 11.25 19.9214 11.4091 19.4744 11.7273C19.0275 12.0455 18.7434 12.4848 18.6222 13.0455L13.4972 12.8636C13.6487 11.803 14.0388 10.8561 14.6676 10.0227C15.304 9.18182 16.1752 8.52273 17.2812 8.04545C18.3949 7.56061 19.732 7.31818 21.2926 7.31818C22.4063 7.31818 23.4328 7.45076 24.3722 7.71591C25.3116 7.97348 26.1297 8.35227 26.8267 8.85227C27.5237 9.3447 28.0616 9.95076 28.4403 10.6705C28.8267 11.3902 29.0199 12.2121 29.0199 13.1364V25H23.7926V22.5682H23.6562C23.3456 23.1591 22.9479 23.6591 22.4631 24.0682C21.9858 24.4773 21.4214 24.7841 20.7699 24.9886C20.1259 25.1932 19.3987 25.2955 18.5881 25.2955ZM20.304 21.6591C20.9025 21.6591 21.4403 21.5379 21.9176 21.2955C22.4025 21.053 22.7888 20.7197 23.0767 20.2955C23.3646 19.8636 23.5085 19.3636 23.5085 18.7955V17.1364C23.3494 17.2197 23.1563 17.2955 22.929 17.3636C22.7093 17.4318 22.4669 17.4962 22.2017 17.5568C21.9366 17.6174 21.6638 17.6705 21.3835 17.7159C21.1032 17.7614 20.8343 17.803 20.5767 17.8409C20.054 17.9242 19.607 18.053 19.2358 18.2273C18.8722 18.4015 18.5919 18.6288 18.3949 18.9091C18.2055 19.1818 18.1108 19.5076 18.1108 19.8864C18.1108 20.4621 18.3153 20.9015 18.7244 21.2045C19.1411 21.5076 19.6676 21.6591 20.304 21.6591ZM47.6562 12.875L42.554 13.0114C42.5009 12.6477 42.357 12.3258 42.1222 12.0455C41.8873 11.7576 41.5805 11.5341 41.2017 11.375C40.8305 11.2083 40.3987 11.125 39.9062 11.125C39.2623 11.125 38.7131 11.2538 38.2585 11.5114C37.8116 11.7689 37.5919 12.1174 37.5994 12.5568C37.5919 12.8977 37.7282 13.1932 38.0085 13.4432C38.2964 13.6932 38.8078 13.8939 39.5426 14.0455L42.9062 14.6818C44.6487 15.0152 45.9441 15.5682 46.7926 16.3409C47.6487 17.1136 48.0805 18.1364 48.0881 19.4091C48.0805 20.6061 47.7244 21.6477 47.0199 22.5341C46.3229 23.4205 45.3684 24.1098 44.1562 24.6023C42.9441 25.0871 41.5578 25.3295 39.9972 25.3295C37.5047 25.3295 35.5388 24.8182 34.0994 23.7955C32.6676 22.7652 31.8494 21.3864 31.6449 19.6591L37.1335 19.5227C37.2547 20.1591 37.5691 20.6439 38.0767 20.9773C38.5843 21.3106 39.232 21.4773 40.0199 21.4773C40.732 21.4773 41.3116 21.3447 41.7585 21.0795C42.2055 20.8144 42.4328 20.4621 42.4403 20.0227C42.4328 19.6288 42.2585 19.3144 41.9176 19.0795C41.5767 18.8371 41.0426 18.6477 40.3153 18.5114L37.2699 17.9318C35.5199 17.6136 34.2169 17.0265 33.3608 16.1705C32.5047 15.3068 32.0805 14.2083 32.0881 12.875C32.0805 11.7083 32.3911 10.7121 33.0199 9.88636C33.6487 9.05303 34.5426 8.41667 35.7017 7.97727C36.8608 7.53788 38.2282 7.31818 39.804 7.31818C42.1676 7.31818 44.0313 7.81439 45.3949 8.80682C46.7585 9.79167 47.5123 11.1477 47.6562 12.875ZM60.6761 7.54545V11.6364H49.6648V7.54545H60.6761ZM51.9716 3.36364H57.5284V19.5114C57.5284 19.8523 57.5814 20.1288 57.6875 20.3409C57.8011 20.5455 57.964 20.6932 58.1761 20.7841C58.3883 20.8674 58.642 20.9091 58.9375 20.9091C59.1496 20.9091 59.3731 20.8902 59.608 20.8523C59.8504 20.8068 60.0322 20.7689 60.1534 20.7386L60.9943 24.75C60.7292 24.8258 60.3542 24.9205 59.8693 25.0341C59.392 25.1477 58.8201 25.2197 58.1534 25.25C56.8504 25.3106 55.733 25.1591 54.8011 24.7955C53.8769 24.4242 53.1686 23.8485 52.6761 23.0682C52.1913 22.2879 51.9564 21.3068 51.9716 20.125V3.36364ZM63.8864 25V1.72727H69.4432V10.5341H69.5568C69.7841 10.0038 70.1061 9.49242 70.5227 9C70.947 8.50758 71.4848 8.10606 72.1364 7.79545C72.7955 7.47727 73.5833 7.31818 74.5 7.31818C75.7121 7.31818 76.8447 7.63636 77.8977 8.27273C78.9583 8.90909 79.8144 9.89015 80.4659 11.2159C81.1174 12.5417 81.4432 14.2311 81.4432 16.2841C81.4432 18.2614 81.1288 19.9167 80.5 21.25C79.8788 22.5833 79.0379 23.5833 77.9773 24.25C76.9242 24.9167 75.7538 25.25 74.4659 25.25C73.5871 25.25 72.8258 25.1061 72.1818 24.8182C71.5379 24.5303 70.9962 24.1515 70.5568 23.6818C70.125 23.2121 69.7917 22.7083 69.5568 22.1705H69.3864V25H63.8864ZM69.3295 16.2727C69.3295 17.2121 69.4545 18.0303 69.7045 18.7273C69.9621 19.4242 70.3295 19.9659 70.8068 20.3523C71.2917 20.7311 71.8712 20.9205 72.5455 20.9205C73.2273 20.9205 73.8068 20.7311 74.2841 20.3523C74.7614 19.9659 75.1212 19.4242 75.3636 18.7273C75.6136 18.0303 75.7386 17.2121 75.7386 16.2727C75.7386 15.3333 75.6136 14.5189 75.3636 13.8295C75.1212 13.1402 74.7614 12.6061 74.2841 12.2273C73.8144 11.8485 73.2348 11.6591 72.5455 11.6591C71.8636 11.6591 71.2841 11.8447 70.8068 12.2159C70.3295 12.5871 69.9621 13.1174 69.7045 13.8068C69.4545 14.4962 69.3295 15.3182 69.3295 16.2727ZM89.2756 25.2955C88.1619 25.2955 87.1733 25.1098 86.3097 24.7386C85.4536 24.3598 84.7756 23.7917 84.2756 23.0341C83.7831 22.2689 83.5369 21.3106 83.5369 20.1591C83.5369 19.1894 83.7074 18.3712 84.0483 17.7045C84.3892 17.0379 84.8589 16.4962 85.4574 16.0795C86.0559 15.6629 86.7453 15.3485 87.5256 15.1364C88.3059 14.9167 89.1392 14.7689 90.0256 14.6932C91.018 14.6023 91.8172 14.5076 92.4233 14.4091C93.0294 14.303 93.4688 14.1553 93.7415 13.9659C94.0218 13.7689 94.1619 13.4924 94.1619 13.1364V13.0795C94.1619 12.4962 93.9612 12.0455 93.5597 11.7273C93.1581 11.4091 92.6165 11.25 91.9347 11.25C91.1998 11.25 90.6089 11.4091 90.1619 11.7273C89.715 12.0455 89.4309 12.4848 89.3097 13.0455L84.1847 12.8636C84.3362 11.803 84.7263 10.8561 85.3551 10.0227C85.9915 9.18182 86.8627 8.52273 87.9688 8.04545C89.0824 7.56061 90.4195 7.31818 91.9801 7.31818C93.0938 7.31818 94.1203 7.45076 95.0597 7.71591C95.9991 7.97348 96.8172 8.35227 97.5142 8.85227C98.2112 9.3447 98.7491 9.95076 99.1278 10.6705C99.5142 11.3902 99.7074 12.2121 99.7074 13.1364V25H94.4801V22.5682H94.3438C94.0331 23.1591 93.6354 23.6591 93.1506 24.0682C92.6733 24.4773 92.1089 24.7841 91.4574 24.9886C90.8134 25.1932 90.0862 25.2955 89.2756 25.2955ZM90.9915 21.6591C91.59 21.6591 92.1278 21.5379 92.6051 21.2955C93.09 21.053 93.4763 20.7197 93.7642 20.2955C94.0521 19.8636 94.196 19.3636 94.196 18.7955V17.1364C94.0369 17.2197 93.8438 17.2955 93.6165 17.3636C93.3968 17.4318 93.1544 17.4962 92.8892 17.5568C92.6241 17.6174 92.3513 17.6705 92.071 17.7159C91.7907 17.7614 91.5218 17.803 91.2642 17.8409C90.7415 17.9242 90.2945 18.053 89.9233 18.2273C89.5597 18.4015 89.2794 18.6288 89.0824 18.9091C88.893 19.1818 88.7983 19.5076 88.7983 19.8864C88.7983 20.4621 89.0028 20.9015 89.4119 21.2045C89.8286 21.5076 90.3551 21.6591 90.9915 21.6591ZM108.116 20.4205L108.139 13.7955H108.912L113.821 7.54545H120.116L112.821 16.5H111.355L108.116 20.4205ZM103.105 25V1.72727H108.662V25H103.105ZM113.946 25L109.378 17.75L113.037 13.8068L120.366 25H113.946ZM137.344 12.875L132.241 13.0114C132.188 12.6477 132.045 12.3258 131.81 12.0455C131.575 11.7576 131.268 11.5341 130.889 11.375C130.518 11.2083 130.086 11.125 129.594 11.125C128.95 11.125 128.401 11.2538 127.946 11.5114C127.499 11.7689 127.279 12.1174 127.287 12.5568C127.279 12.8977 127.416 13.1932 127.696 13.4432C127.984 13.6932 128.495 13.8939 129.23 14.0455L132.594 14.6818C134.336 15.0152 135.632 15.5682 136.48 16.3409C137.336 17.1136 137.768 18.1364 137.776 19.4091C137.768 20.6061 137.412 21.6477 136.707 22.5341C136.01 23.4205 135.056 24.1098 133.844 24.6023C132.632 25.0871 131.245 25.3295 129.685 25.3295C127.192 25.3295 125.226 24.8182 123.787 23.7955C122.355 22.7652 121.537 21.3864 121.332 19.6591L126.821 19.5227C126.942 20.1591 127.257 20.6439 127.764 20.9773C128.272 21.3106 128.92 21.4773 129.707 21.4773C130.42 21.4773 130.999 21.3447 131.446 21.0795C131.893 20.8144 132.12 20.4621 132.128 20.0227C132.12 19.6288 131.946 19.3144 131.605 19.0795C131.264 18.8371 130.73 18.6477 130.003 18.5114L126.957 17.9318C125.207 17.6136 123.904 17.0265 123.048 16.1705C122.192 15.3068 121.768 14.2083 121.776 12.875C121.768 11.7083 122.079 10.7121 122.707 9.88636C123.336 9.05303 124.23 8.41667 125.389 7.97727C126.548 7.53788 127.916 7.31818 129.491 7.31818C131.855 7.31818 133.719 7.81439 135.082 8.80682C136.446 9.79167 137.2 11.1477 137.344 12.875Z" fill="#13A72B"/>
<path d="M143.636 25.3295C142.818 25.3295 142.117 25.0417 141.534 24.4659C140.958 23.8902 140.674 23.1932 140.682 22.375C140.674 21.572 140.958 20.8864 141.534 20.3182C142.117 19.7424 142.818 19.4545 143.636 19.4545C144.409 19.4545 145.091 19.7424 145.682 20.3182C146.28 20.8864 146.583 21.572 146.591 22.375C146.583 22.9205 146.439 23.4167 146.159 23.8636C145.886 24.3106 145.527 24.6667 145.08 24.9318C144.64 25.197 144.159 25.3295 143.636 25.3295ZM155.273 20.4205L155.295 13.7955H156.068L160.977 7.54545H167.273L159.977 16.5H158.511L155.273 20.4205ZM150.261 25V1.72727H155.818V25H150.261ZM161.102 25L156.534 17.75L160.193 13.8068L167.523 25H161.102ZM169.307 25V21.8295L177.398 11.9773V11.8636H169.591V7.54545H184.023V11.0227L176.523 20.5682V20.6818H184.295V25H169.307Z" fill="#ABABBA"/>
</svg>
