<svg width="20" height="19" viewBox="0 0 20 19" fill="none" xmlns="http://www.w3.org/2000/svg">
<path d="M14 1V4.803C15.2376 5.51912 16.1799 6.65245 16.658 8H17.999C18.2642 8 18.5186 8.10536 18.7061 8.29289C18.8936 8.48043 18.999 8.73478 18.999 9V11C18.999 11.2652 18.8936 11.5196 18.7061 11.7071C18.5186 11.8946 18.2642 12 17.999 12H16.657C16.321 12.95 15.75 13.8 14.999 14.473V16.5C14.999 16.8978 14.841 17.2794 14.5597 17.5607C14.2783 17.842 13.8968 18 13.499 18C13.1012 18 12.7196 17.842 12.4383 17.5607C12.157 17.2794 11.999 16.8978 11.999 16.5V15.917C11.6685 15.9724 11.334 16.0001 10.999 16H6.99899C6.66393 16.0001 6.32945 15.9724 5.99899 15.917V16.5C5.99899 16.8978 5.84096 17.2794 5.55965 17.5607C5.27835 17.842 4.89682 18 4.49899 18C4.10117 18 3.71964 17.842 3.43833 17.5607C3.15703 17.2794 2.99899 16.8978 2.99899 16.5V14.5L2.99999 14.473C2.09402 13.663 1.45536 12.597 1.16853 11.4161C0.88171 10.2352 0.960248 8.995 1.39375 7.85969C1.82726 6.72438 2.59529 5.74747 3.59621 5.05826C4.59712 4.36904 5.78373 4.00001 6.99899 4H9.49899L13.999 1H14Z" stroke="#5050D1" stroke-width="2" stroke-linecap="round" stroke-linejoin="round"/>
</svg>
