<svg width="35" height="35" viewBox="0 0 35 35" fill="none" xmlns="http://www.w3.org/2000/svg">
<path d="M32.109 16.0371C31.608 15.372 29.7465 14.914 28.959 13.717C28.1715 12.52 27.5269 9.92783 25.5226 8.93184C23.5183 7.93584 19.6875 7.65625 17.5 7.65625C15.3125 7.65625 11.4843 7.92969 9.47729 8.92979C7.47026 9.92988 6.82837 12.52 6.04087 13.7149C5.25337 14.9099 3.39194 15.372 2.89087 16.0371C2.38979 16.7022 2.03706 20.907 2.25171 22.9688C2.46636 25.0305 2.86694 26.25 2.86694 26.25H8.74585C9.70835 26.25 10.0214 25.8884 11.9902 25.7031C14.1503 25.498 16.2695 25.4297 17.5 25.4297C18.7304 25.4297 20.9179 25.498 23.0767 25.7031C25.0455 25.8897 25.3688 26.25 26.321 26.25H32.1316C32.1316 26.25 32.5322 25.0305 32.7468 22.9688C32.9615 20.907 32.6074 16.7022 32.109 16.0371ZM27.3437 26.25H31.1718V27.3438H27.3437V26.25ZM3.82808 26.25H7.6562V27.3438H3.82808V26.25Z" stroke="#5050D1" stroke-width="2" stroke-linecap="round" stroke-linejoin="round"/>
<path d="M24.915 21.134C24.511 20.6671 23.1944 20.2774 21.4512 20.0163C19.7081 19.7552 19.0723 19.6875 17.5137 19.6875C15.9551 19.6875 15.2462 19.7996 13.5755 20.0163C11.9048 20.233 10.6504 20.6185 10.1125 21.134C9.30513 21.916 10.4877 22.7937 11.4161 22.9004C12.3157 23.0029 14.1142 22.9653 17.5212 22.9653C20.9283 22.9653 22.7268 23.0029 23.6264 22.9004C24.5534 22.7876 25.6512 21.9707 24.915 21.134ZM29.5019 16.6147C29.4981 16.5604 29.4743 16.5095 29.4352 16.4716C29.3961 16.4338 29.3444 16.4117 29.29 16.4097C28.4827 16.3809 27.663 16.4384 26.209 16.867C25.4672 17.0835 24.7706 17.4323 24.1528 17.8965C23.9969 18.0182 24.0523 18.347 24.2478 18.3818C25.4463 18.5224 26.6519 18.5932 27.8585 18.5937C28.5825 18.5937 29.3296 18.3887 29.4684 17.7434C29.5392 17.3713 29.5505 16.9903 29.5019 16.6147ZM5.4982 16.6147C5.50203 16.5604 5.52579 16.5095 5.5649 16.4716C5.60401 16.4338 5.65572 16.4117 5.71011 16.4097C6.51744 16.3809 7.33706 16.4384 8.79107 16.867C9.53288 17.0835 10.2295 17.4323 10.8473 17.8965C11.0032 18.0182 10.9478 18.347 10.7523 18.3818C9.55384 18.5224 8.34823 18.5932 7.14156 18.5937C6.41763 18.5937 5.67046 18.3887 5.53169 17.7434C5.46094 17.3713 5.44964 16.9903 5.4982 16.6147Z" fill="#5050D1"/>
<path d="M29.5312 13.125H30.625M4.375 13.125H5.46875M5.33203 14.4238C5.33203 14.4238 8.50049 13.6035 17.5 13.6035C26.4995 13.6035 29.668 14.4238 29.668 14.4238" stroke="#5050D1" stroke-width="2" stroke-linecap="round" stroke-linejoin="round"/>
</svg>
