<svg width="32" height="32" viewBox="0 0 32 32" fill="none" xmlns="http://www.w3.org/2000/svg">
<path d="M13.3333 2.66666V5.67999L16 7.45332V5.33332H29.3333V25.3333H22.6667V28H32V2.66666H13.3333ZM10 6.66666L0 13.3333V28H20V13.3333L10 6.66666ZM18.6667 7.99999V9.23999L20.8133 10.6667H21.3333V7.99999H18.6667ZM24 7.99999V10.6667H26.6667V7.99999H24ZM10 9.99999L17.3333 14.6667V25.3333H13.3333V17.3333H6.66667V25.3333H2.66667V14.6667L10 9.99999ZM24 13.3333V16H26.6667V13.3333H24ZM24 18.6667V21.3333H26.6667V18.6667H24Z" fill="#5050D1"/>
</svg>
