<svg width="41" height="37" viewBox="0 0 41 37" fill="none" xmlns="http://www.w3.org/2000/svg">
<path d="M32.109 18.0371C31.608 17.372 29.7465 16.914 28.959 15.717C28.1715 14.52 27.5269 11.9278 25.5226 10.9318C23.5183 9.93584 19.6875 9.65625 17.5 9.65625C15.3125 9.65625 11.4843 9.92969 9.47729 10.9298C7.47026 11.9299 6.82837 14.52 6.04087 15.7149C5.25337 16.9099 3.39194 17.372 2.89087 18.0371C2.38979 18.7022 2.03706 22.907 2.25171 24.9688C2.46636 27.0305 2.86694 28.25 2.86694 28.25H8.74585C9.70835 28.25 10.0214 27.8884 11.9902 27.7031C14.1503 27.498 16.2695 27.4297 17.5 27.4297C18.7304 27.4297 20.9179 27.498 23.0767 27.7031C25.0455 27.8897 25.3688 28.25 26.321 28.25H32.1316C32.1316 28.25 32.5322 27.0305 32.7468 24.9688C32.9615 22.907 32.6074 18.7022 32.109 18.0371ZM27.3437 28.25H31.1718V29.3438H27.3437V28.25ZM3.82808 28.25H7.6562V29.3438H3.82808V28.25Z" stroke="#5050D1" stroke-width="2" stroke-linecap="round" stroke-linejoin="round"/>
<path d="M24.915 23.134C24.511 22.6671 23.1944 22.2774 21.4512 22.0163C19.7081 21.7552 19.0723 21.6875 17.5137 21.6875C15.9551 21.6875 15.2462 21.7996 13.5755 22.0163C11.9048 22.233 10.6504 22.6185 10.1125 23.134C9.30513 23.916 10.4877 24.7937 11.4161 24.9004C12.3157 25.0029 14.1142 24.9653 17.5212 24.9653C20.9283 24.9653 22.7268 25.0029 23.6264 24.9004C24.5534 24.7876 25.6512 23.9707 24.915 23.134ZM29.5019 18.6147C29.4981 18.5604 29.4743 18.5095 29.4352 18.4716C29.3961 18.4338 29.3444 18.4117 29.29 18.4097C28.4827 18.3809 27.663 18.4384 26.209 18.867C25.4672 19.0835 24.7706 19.4323 24.1528 19.8965C23.9969 20.0182 24.0523 20.347 24.2478 20.3818C25.4463 20.5224 26.6519 20.5932 27.8585 20.5937C28.5825 20.5937 29.3296 20.3887 29.4684 19.7434C29.5392 19.3713 29.5505 18.9903 29.5019 18.6147ZM5.4982 18.6147C5.50203 18.5604 5.52579 18.5095 5.5649 18.4716C5.60401 18.4338 5.65572 18.4117 5.71011 18.4097C6.51744 18.3809 7.33706 18.4384 8.79107 18.867C9.53288 19.0835 10.2295 19.4323 10.8473 19.8965C11.0032 20.0182 10.9478 20.347 10.7523 20.3818C9.55384 20.5224 8.34823 20.5932 7.14156 20.5937C6.41763 20.5937 5.67046 20.3887 5.53169 19.7434C5.46094 19.3713 5.44964 18.9903 5.4982 18.6147Z" fill="#5050D1"/>
<path d="M29.5312 15.125H30.625M4.375 15.125H5.46875M5.33203 16.4238C5.33203 16.4238 8.50049 15.6035 17.5 15.6035C26.4995 15.6035 29.668 16.4238 29.668 16.4238" stroke="#5050D1" stroke-width="2" stroke-linecap="round" stroke-linejoin="round"/>
<path d="M31.3333 2H34.6666C34.9318 2 35.1862 2.10536 35.3737 2.29289C35.5612 2.48043 35.6666 2.73478 35.6666 3C35.6666 3.61884 35.4208 4.21233 34.9832 4.64992C34.5456 5.0875 33.9521 5.33333 33.3333 5.33333H32.6666C32.0477 5.33333 31.4543 5.0875 31.0167 4.64992C30.5791 4.21233 30.3333 3.61884 30.3333 3C30.3333 2.73478 30.4386 2.48043 30.6261 2.29289C30.8137 2.10536 31.068 2 31.3333 2Z" stroke="#13A72B" stroke-width="2" stroke-linecap="round" stroke-linejoin="round"/>
<path d="M27.6666 11.3333V10.6667C27.6666 9.25219 28.2285 7.89563 29.2287 6.89544C30.2289 5.89525 31.5855 5.33334 33 5.33334C34.4144 5.33334 35.771 5.89525 36.7712 6.89544C37.7714 7.89563 38.3333 9.25219 38.3333 10.6667V11.3333C38.3333 12.0406 38.0523 12.7189 37.5522 13.219C37.0521 13.7191 36.3739 14 35.6666 14H30.3333C29.626 14 28.9478 13.7191 28.4477 13.219C27.9476 12.7189 27.6666 12.0406 27.6666 11.3333Z" stroke="#13A72B" stroke-width="2" stroke-linecap="round" stroke-linejoin="round"/>
</svg>
