<svg width="20" height="20" viewBox="0 0 20 20" fill="none" xmlns="http://www.w3.org/2000/svg">
<path fill-rule="evenodd" clip-rule="evenodd" d="M10 0C15.523 0 20 4.477 20 10C20 15.523 15.523 20 10 20C4.477 20 0 15.523 0 10C0 4.477 4.477 0 10 0ZM10 2C7.87827 2 5.84344 2.84285 4.34315 4.34315C2.84285 5.84344 2 7.87827 2 10C2 12.1217 2.84285 14.1566 4.34315 15.6569C5.84344 17.1571 7.87827 18 10 18C12.1217 18 14.1566 17.1571 15.6569 15.6569C17.1571 14.1566 18 12.1217 18 10C18 7.87827 17.1571 5.84344 15.6569 4.34315C14.1566 2.84285 12.1217 2 10 2ZM10 4C10.2652 4 10.5196 4.10536 10.7071 4.29289C10.8946 4.48043 11 4.73478 11 5V6H13C13.2652 6 13.5196 6.10536 13.7071 6.29289C13.8946 6.48043 14 6.73478 14 7C14 7.26522 13.8946 7.51957 13.7071 7.70711C13.5196 7.89464 13.2652 8 13 8H11V9H12C12.663 9 13.2989 9.26339 13.7678 9.73223C14.2366 10.2011 14.5 10.837 14.5 11.5C14.5 12.163 14.2366 12.7989 13.7678 13.2678C13.2989 13.7366 12.663 14 12 14H11V15C11 15.2652 10.8946 15.5196 10.7071 15.7071C10.5196 15.8946 10.2652 16 10 16C9.73478 16 9.48043 15.8946 9.29289 15.7071C9.10536 15.5196 9 15.2652 9 15V14H7C6.73478 14 6.48043 13.8946 6.29289 13.7071C6.10536 13.5196 6 13.2652 6 13C6 12.7348 6.10536 12.4804 6.29289 12.2929C6.48043 12.1054 6.73478 12 7 12H9V11H8C7.33696 11 6.70107 10.7366 6.23223 10.2678C5.76339 9.79893 5.5 9.16304 5.5 8.5C5.5 7.83696 5.76339 7.20107 6.23223 6.73223C6.70107 6.26339 7.33696 6 8 6H9V5C9 4.73478 9.10536 4.48043 9.29289 4.29289C9.48043 4.10536 9.73478 4 10 4ZM12 11H11V12H12C12.1326 12 12.2598 11.9473 12.3536 11.8536C12.4473 11.7598 12.5 11.6326 12.5 11.5C12.5 11.3674 12.4473 11.2402 12.3536 11.1464C12.2598 11.0527 12.1326 11 12 11ZM9 8H8C7.86739 8 7.74021 8.05268 7.64645 8.14645C7.55268 8.24021 7.5 8.36739 7.5 8.5C7.5 8.63261 7.55268 8.75979 7.64645 8.85355C7.74021 8.94732 7.86739 9 8 9H9V8Z" fill="#5050D1"/>
</svg>
