<svg width="32" height="32" viewBox="0 0 32 32" fill="none" xmlns="http://www.w3.org/2000/svg">
<path d="M16 21.3333L16.6827 20.7493C17.1387 20.3609 17.6334 19.8613 18.1667 19.2507C18.7 18.6391 19.1947 17.9609 19.6507 17.216C20.1058 16.472 20.3334 15.7333 20.3334 15C20.3334 13.8 19.9112 12.7778 19.0667 11.9333C18.2223 11.0889 17.2 10.6667 16 10.6667C14.8 10.6667 13.7778 11.0889 12.9334 11.9333C12.0889 12.7778 11.6667 13.8 11.6667 15C11.6667 15.7333 11.8943 16.472 12.3494 17.216C12.8054 17.9609 13.3 18.6391 13.8334 19.2507C14.3667 19.8613 14.8614 20.3609 15.3174 20.7493L16 21.3333ZM16 16C15.6223 16 15.3058 15.872 15.0507 15.616C14.7947 15.3609 14.6667 15.0444 14.6667 14.6667C14.6667 14.2889 14.7947 13.972 15.0507 13.716C15.3058 13.4609 15.6223 13.3333 16 13.3333C16.3778 13.3333 16.6947 13.4609 16.9507 13.716C17.2058 13.972 17.3334 14.2889 17.3334 14.6667C17.3334 15.0444 17.2058 15.3609 16.9507 15.616C16.6947 15.872 16.3778 16 16 16ZM10.6667 25.3333C8.06671 25.3333 5.86137 24.4276 4.05071 22.616C2.23915 20.8053 1.33337 18.6 1.33337 16C1.33337 13.4 2.23915 11.1942 4.05071 9.38267C5.86137 7.572 8.06671 6.66667 10.6667 6.66667H21.3334C23.9334 6.66667 26.1387 7.572 27.9494 9.38267C29.7609 11.1942 30.6667 13.4 30.6667 16C30.6667 18.6 29.7609 20.8053 27.9494 22.616C26.1387 24.4276 23.9334 25.3333 21.3334 25.3333H10.6667ZM10.6667 22.6667H21.3334C23.1778 22.6667 24.7503 22.0164 26.0507 20.716C27.3503 19.4164 28 17.8444 28 16C28 14.1556 27.3503 12.5831 26.0507 11.2827C24.7503 9.98311 23.1778 9.33333 21.3334 9.33333H10.6667C8.82226 9.33333 7.25026 9.98311 5.95071 11.2827C4.65026 12.5831 4.00004 14.1556 4.00004 16C4.00004 17.8444 4.65026 19.4164 5.95071 20.716C7.25026 22.0164 8.82226 22.6667 10.6667 22.6667Z" fill="#5050D1"/>
</svg>
