<svg width="35" height="35" viewBox="0 0 35 35" fill="none" xmlns="http://www.w3.org/2000/svg">
<path d="M17.5 17.5C16.6347 17.5 15.7888 17.7566 15.0694 18.2373C14.3499 18.718 13.7891 19.4013 13.458 20.2007C13.1269 21.0002 13.0402 21.8798 13.209 22.7285C13.3779 23.5772 13.7945 24.3567 14.4064 24.9686C15.0182 25.5804 15.7978 25.9971 16.6465 26.1659C17.4951 26.3347 18.3748 26.2481 19.1742 25.917C19.9736 25.5858 20.6569 25.0251 21.1377 24.3056C21.6184 23.5861 21.875 22.7403 21.875 21.875C21.875 20.7147 21.414 19.6019 20.5936 18.7814C19.7731 17.9609 18.6603 17.5 17.5 17.5ZM17.5 23.3333C17.2115 23.3333 16.9296 23.2478 16.6898 23.0875C16.45 22.9273 16.263 22.6995 16.1527 22.4331C16.0423 22.1666 16.0134 21.8734 16.0697 21.5905C16.1259 21.3076 16.2648 21.0477 16.4688 20.8438C16.6727 20.6398 16.9326 20.5009 17.2155 20.4447C17.4984 20.3884 17.7916 20.4173 18.0581 20.5277C18.3245 20.638 18.5523 20.825 18.7125 21.0648C18.8728 21.3046 18.9583 21.5866 18.9583 21.875C18.9583 22.2618 18.8047 22.6327 18.5312 22.9062C18.2577 23.1797 17.8868 23.3333 17.5 23.3333ZM16.4646 14.1604C16.6033 14.2932 16.7668 14.3972 16.9458 14.4667C17.1204 14.5438 17.3091 14.5837 17.5 14.5837C17.6908 14.5837 17.8796 14.5438 18.0541 14.4667C18.2332 14.3972 18.3967 14.2932 18.5354 14.1604L21.875 10.8792C22.1573 10.5968 22.3159 10.2139 22.3159 9.81457C22.3159 9.41528 22.1573 9.03233 21.875 8.74999C21.5926 8.46764 21.2097 8.30902 20.8104 8.30902C20.4111 8.30902 20.0282 8.46764 19.7458 8.74999L18.9583 9.61041V4.37499C18.9583 3.98822 18.8047 3.61728 18.5312 3.34379C18.2577 3.0703 17.8868 2.91666 17.5 2.91666C17.1132 2.91666 16.7423 3.0703 16.4688 3.34379C16.1953 3.61728 16.0416 3.98822 16.0416 4.37499V9.61041L15.2541 8.74999C14.9718 8.46764 14.5889 8.30902 14.1896 8.30902C13.7903 8.30902 13.4073 8.46764 13.125 8.74999C12.8426 9.03233 12.684 9.41528 12.684 9.81457C12.684 10.2139 12.8426 10.5968 13.125 10.8792L16.4646 14.1604ZM27.7083 21.875C27.7083 21.5866 27.6228 21.3046 27.4625 21.0648C27.3023 20.825 27.0745 20.638 26.8081 20.5277C26.5416 20.4173 26.2484 20.3884 25.9655 20.4447C25.6826 20.5009 25.4227 20.6398 25.2188 20.8438C25.0148 21.0477 24.8759 21.3076 24.8197 21.5905C24.7634 21.8734 24.7923 22.1666 24.9027 22.4331C25.013 22.6995 25.1999 22.9273 25.4398 23.0875C25.6796 23.2478 25.9615 23.3333 26.25 23.3333C26.6368 23.3333 27.0077 23.1797 27.2812 22.9062C27.5547 22.6327 27.7083 22.2618 27.7083 21.875ZM29.1666 11.6667H24.7916C24.4049 11.6667 24.0339 11.8203 23.7604 12.0938C23.487 12.3673 23.3333 12.7382 23.3333 13.125C23.3333 13.5118 23.487 13.8827 23.7604 14.1562C24.0339 14.4297 24.4049 14.5833 24.7916 14.5833H29.1666C29.5534 14.5833 29.9244 14.737 30.1978 15.0105C30.4713 15.2839 30.625 15.6549 30.625 16.0417V27.7083C30.625 28.0951 30.4713 28.466 30.1978 28.7395C29.9244 29.013 29.5534 29.1667 29.1666 29.1667H5.83331C5.44654 29.1667 5.07561 29.013 4.80212 28.7395C4.52862 28.466 4.37498 28.0951 4.37498 27.7083V16.0417C4.37498 15.6549 4.52862 15.2839 4.80212 15.0105C5.07561 14.737 5.44654 14.5833 5.83331 14.5833H10.2083C10.5951 14.5833 10.966 14.4297 11.2395 14.1562C11.513 13.8827 11.6666 13.5118 11.6666 13.125C11.6666 12.7382 11.513 12.3673 11.2395 12.0938C10.966 11.8203 10.5951 11.6667 10.2083 11.6667H5.83331C4.67299 11.6667 3.56019 12.1276 2.73972 12.9481C1.91925 13.7685 1.45831 14.8813 1.45831 16.0417V27.7083C1.45831 28.8686 1.91925 29.9814 2.73972 30.8019C3.56019 31.6224 4.67299 32.0833 5.83331 32.0833H29.1666C30.327 32.0833 31.4398 31.6224 32.2602 30.8019C33.0807 29.9814 33.5416 28.8686 33.5416 27.7083V16.0417C33.5416 14.8813 33.0807 13.7685 32.2602 12.9481C31.4398 12.1276 30.327 11.6667 29.1666 11.6667ZM7.29165 21.875C7.29165 22.1634 7.37718 22.4454 7.53742 22.6852C7.69766 22.925 7.92542 23.1119 8.1919 23.2223C8.45837 23.3327 8.7516 23.3616 9.03449 23.3053C9.31737 23.249 9.57722 23.1101 9.78118 22.9062C9.98513 22.7022 10.124 22.4424 10.1803 22.1595C10.2366 21.8766 10.2077 21.5834 10.0973 21.3169C9.98693 21.0504 9.80001 20.8227 9.56019 20.6624C9.32036 20.5022 9.03841 20.4167 8.74998 20.4167C8.36321 20.4167 7.99227 20.5703 7.71878 20.8438C7.44529 21.1173 7.29165 21.4882 7.29165 21.875Z" fill="#5050D1"/>
</svg>
