<svg width="35" height="21" viewBox="0 0 35 21" fill="none" xmlns="http://www.w3.org/2000/svg">
<path d="M32.5312 0.09375H2.46875C1.85544 0.09375 1.26724 0.337388 0.833566 0.771065C0.399888 1.20474 0.15625 1.79294 0.15625 2.40625V18.5938C0.15625 19.2071 0.399888 19.7953 0.833566 20.2289C1.26724 20.6626 1.85544 20.9062 2.46875 20.9062H32.5312C33.1446 20.9062 33.7328 20.6626 34.1664 20.2289C34.6001 19.7953 34.8438 19.2071 34.8438 18.5938V2.40625C34.8438 1.79294 34.6001 1.20474 34.1664 0.771065C33.7328 0.337388 33.1446 0.09375 32.5312 0.09375ZM10.9961 18.5938L2.46875 11.1359V9.86406L10.9961 2.40625H24.0039L32.5312 9.86406V11.1359L24.0039 18.5938H10.9961ZM32.5312 6.8L27.516 2.40625H32.5312V6.8ZM7.48398 2.40625L2.46875 6.8V2.40625H7.48398ZM2.46875 14.2L7.48398 18.5938H2.46875V14.2ZM32.5312 18.5938H27.516L32.5312 14.2V18.5938ZM17.5 4.71875C16.3566 4.71875 15.2388 5.05781 14.2881 5.69307C13.3374 6.32832 12.5964 7.23123 12.1588 8.28761C11.7213 9.344 11.6068 10.5064 11.8298 11.6279C12.0529 12.7493 12.6035 13.7794 13.412 14.588C14.2206 15.3965 15.2507 15.9471 16.3721 16.1702C17.4936 16.3932 18.656 16.2787 19.7124 15.8412C20.7688 15.4036 21.6717 14.6626 22.3069 13.7119C22.9422 12.7612 23.2812 11.6434 23.2812 10.5C23.2812 8.96672 22.6722 7.49623 21.588 6.41204C20.5038 5.32784 19.0333 4.71875 17.5 4.71875ZM17.5 13.9688C16.8139 13.9688 16.1433 13.7653 15.5729 13.3842C15.0024 13.003 14.5578 12.4613 14.2953 11.8274C14.0328 11.1936 13.9641 10.4962 14.0979 9.82328C14.2317 9.15041 14.5621 8.53234 15.0472 8.04722C15.5323 7.56211 16.1504 7.23174 16.8233 7.0979C17.4962 6.96406 18.1936 7.03275 18.8274 7.29529C19.4613 7.55783 20.003 8.00243 20.3842 8.57287C20.7653 9.1433 20.9688 9.81395 20.9688 10.5C20.9649 11.4188 20.5983 12.2989 19.9486 12.9486C19.2989 13.5983 18.4188 13.9649 17.5 13.9688Z" fill="#5050D1"/>
</svg>
